<?xml version="1.0" standalone="no"?>
<!DOCTYPE svg PUBLIC "-//W3C//DTD SVG 20010904//EN"
 "http://www.w3.org/TR/2001/REC-SVG-20010904/DTD/svg10.dtd">
<svg version="1.0" xmlns="http://www.w3.org/2000/svg"
 width="426.000000pt" height="426.000000pt" viewBox="0 0 426.000000 426.000000"
 preserveAspectRatio="xMidYMid meet">
<metadata>
Created by potrace 1.11, written by Peter Selinger 2001-2013
</metadata>
<g transform="translate(0.000000,426.000000) scale(0.100000,-0.100000)"
fill="#000000" stroke="none">
<path d="M2262 4063 c-18 -4 -22 -10 -20 -35 1 -17 8 -33 15 -35 7 -3 13 -11
13 -18 0 -20 21 -30 31 -14 5 8 9 10 9 6 0 -5 7 -1 16 7 8 9 12 20 9 26 -3 5
1 10 9 10 9 0 16 7 16 15 0 17 -36 39 -50 30 -6 -3 -10 -1 -10 4 0 6 -3 10 -7
10 -5 -1 -18 -4 -31 -6z"/>
<path d="M1415 4043 c-40 -21 -97 -83 -91 -99 3 -8 1 -16 -4 -19 -13 -8 -13
-72 0 -80 6 -4 8 -10 5 -15 -3 -5 2 -16 11 -24 8 -9 13 -16 9 -16 -3 0 2 -11
11 -25 9 -14 21 -22 27 -18 6 3 7 1 3 -5 -6 -10 51 -54 74 -58 3 0 23 -9 44
-18 53 -24 125 -34 219 -33 l77 2 0 -30 c0 -44 15 -60 57 -62 21 -1 44 -2 50
-2 10 -1 10 -7 1 -28 -22 -50 -52 -80 -78 -76 -24 4 -130 -61 -130 -80 0 -6
-3 -8 -6 -4 -3 3 -32 -20 -64 -50 -48 -47 -56 -59 -45 -70 18 -17 35 -17 35 2
0 23 32 55 56 55 12 0 42 -9 68 -21 25 -11 51 -17 57 -14 20 13 148 11 154 -2
2 -7 10 -13 16 -13 16 0 38 -31 39 -52 0 -23 16 -23 28 -1 13 22 27 8 68 -64
16 -29 33 -53 37 -53 5 0 5 -5 2 -10 -4 -6 -1 -18 6 -26 11 -14 14 -14 23 -1
12 16 16 17 50 17 24 0 24 0 11 48 -8 26 -19 73 -25 105 -7 36 -15 55 -22 51
-7 -4 -8 -2 -4 4 10 16 -12 54 -26 46 -7 -4 -8 -3 -4 4 7 11 -31 42 -56 46 -7
1 -32 14 -55 29 -51 32 -64 80 -38 140 13 32 89 104 123 117 18 7 44 26 58 43
l25 30 72 -15 c153 -33 275 -18 332 42 37 38 45 108 19 159 -23 46 -55 82 -65
75 -5 -3 -9 -1 -9 5 0 16 -58 23 -96 11 -33 -11 -172 -86 -184 -99 -6 -8 -35
-25 -85 -51 -22 -12 -46 -29 -53 -38 -7 -9 -16 -16 -20 -15 -11 3 -132 -61
-132 -70 0 -4 -5 -5 -10 -2 -6 4 -16 2 -23 -3 -30 -25 -129 -43 -229 -42 -107
0 -120 2 -178 14 -43 10 -161 77 -154 88 3 4 1 8 -4 8 -31 0 -56 153 -27 172
5 4 10 13 10 20 1 7 6 12 13 11 7 -2 12 1 12 5 0 14 55 40 100 47 30 4 60 2
88 -8 52 -18 54 -13 4 12 -47 24 -135 26 -177 4z"/>
<path d="M2138 3999 c-22 -12 -23 -42 -3 -63 8 -8 15 -19 15 -24 0 -14 25 -22
40 -12 7 4 10 13 6 19 -4 6 -2 9 6 6 11 -5 47 52 37 59 -13 8 -62 26 -72 26
-7 0 -20 -5 -29 -11z"/>
<path d="M1705 3960 c-8 -24 3 -80 15 -80 5 0 15 6 22 13 7 6 20 13 28 15 26
6 29 26 7 47 -30 28 -64 30 -72 5z"/>
<path d="M1982 3962 c-47 -8 -54 -80 -12 -122 11 -11 17 -20 14 -20 -3 0 4 -8
17 -19 18 -14 27 -16 41 -8 9 6 15 13 13 15 -2 3 7 13 20 24 14 11 23 23 20
28 -3 5 2 13 11 18 22 12 15 57 -9 57 -10 0 -21 5 -25 11 -8 13 -58 22 -90 16z"/>
<path d="M1792 3882 c-12 -2 -26 -11 -31 -20 -12 -22 -6 -85 8 -90 6 -2 11 -9
11 -16 0 -7 13 -22 29 -34 25 -18 31 -19 47 -7 11 8 15 15 11 15 -5 0 5 12 22
28 39 36 55 76 36 92 -8 6 -18 9 -24 6 -5 -3 -11 -1 -13 4 -4 13 -64 27 -96
22z"/>
<path d="M1564 3865 c-27 -19 -28 -61 -2 -103 42 -69 57 -73 103 -26 35 35 55
68 55 89 0 35 -120 67 -156 40z"/>
<path d="M1427 3858 c-22 -12 -16 -49 12 -79 18 -20 19 -20 45 11 31 38 32 46
6 60 -11 6 -20 8 -20 4 0 -3 -6 -2 -13 4 -8 7 -18 7 -30 0z"/>
<path d="M1330 3735 c0 -10 33 -59 52 -76 24 -22 23 -32 -2 -24 -11 3 -20 3
-20 -2 0 -8 115 -80 152 -95 17 -7 17 -9 0 -40 -9 -18 -19 -35 -22 -38 -17
-17 -89 -161 -90 -177 0 -7 -4 -13 -8 -13 -8 0 -37 -71 -33 -79 2 -2 -2 -7 -7
-10 -21 -13 -49 -89 -51 -134 -1 -47 -1 -48 26 -44 57 9 93 20 93 28 0 5 5 9
11 9 25 0 140 76 145 97 8 29 -2 56 -26 71 -17 10 -25 9 -48 -5 -15 -10 -30
-21 -33 -26 -4 -5 -9 -5 -12 -1 -3 5 10 47 29 93 18 46 31 88 28 92 -3 5 0 9
6 9 6 0 8 5 5 10 -3 6 -2 10 2 10 9 0 39 71 34 79 -2 2 2 7 7 10 12 8 31 96
23 109 -8 12 -71 33 -82 26 -5 -3 -9 -1 -9 3 0 5 -17 16 -37 25 -21 9 -59 35
-85 58 -27 23 -48 39 -48 35z"/>
<path d="M1666 3234 c-18 -18 -21 -40 -6 -49 6 -4 7 -11 4 -17 -4 -6 9 -25 29
-43 24 -22 41 -50 51 -86 21 -72 21 -96 3 -146 -9 -22 -13 -44 -10 -47 4 -3 1
-6 -5 -6 -9 0 -18 -17 -27 -50 -1 -3 -9 -21 -17 -40 -27 -60 -40 -151 -35
-255 7 -165 15 -288 21 -325 3 -19 8 -57 10 -85 8 -90 27 -260 31 -275 2 -8 7
-46 11 -85 3 -38 8 -73 11 -77 2 -5 6 -29 8 -55 2 -27 7 -64 11 -83 9 -52 11
-307 2 -370 -4 -30 -10 -73 -13 -95 -3 -22 -10 -55 -16 -73 -6 -18 -8 -36 -5
-39 3 -4 2 -11 -3 -17 -14 -16 -51 -126 -43 -126 4 0 2 -4 -4 -8 -6 -4 -19
-23 -29 -42 -38 -75 -92 -140 -175 -210 -28 -24 -166 -93 -190 -95 -8 -1 -26
-5 -40 -10 -47 -16 -149 -4 -188 21 -12 8 -22 12 -22 9 0 -8 -45 40 -75 80
-13 17 -33 53 -44 80 l-22 50 5 -95 c2 -62 10 -113 23 -146 25 -63 84 -145
101 -139 7 3 11 1 8 -4 -3 -4 3 -16 14 -26 11 -10 20 -14 20 -10 0 5 6 1 13
-10 8 -10 19 -15 24 -12 6 4 14 0 17 -9 4 -9 13 -14 21 -10 8 3 15 2 15 -3 0
-19 130 -41 241 -40 113 1 261 23 267 40 2 5 8 6 13 3 6 -3 18 -2 27 2 9 4 25
9 34 10 24 5 301 95 313 102 5 3 18 7 28 7 10 1 22 6 25 11 4 5 16 10 27 10
11 1 53 9 93 18 50 11 79 13 91 6 10 -5 21 -6 25 -3 6 7 10 -19 6 -50 -1 -10
-11 -34 -22 -53 -11 -19 -18 -34 -15 -34 3 0 -8 -14 -24 -31 -16 -17 -29 -36
-29 -41 0 -7 44 -8 123 -4 67 3 130 6 140 6 10 1 31 6 45 12 15 6 32 12 37 13
31 4 65 18 65 27 0 5 4 7 9 3 5 -3 16 1 24 9 8 8 17 13 19 10 3 -2 16 6 30 18
14 13 32 24 39 26 8 2 19 10 25 18 6 7 15 14 19 14 9 0 89 62 93 72 2 5 8 6
13 2 5 -3 9 -1 9 4 0 5 18 17 40 27 22 10 40 21 40 24 0 17 116 19 133 2 6 -6
13 -45 15 -86 2 -41 8 -75 14 -75 5 0 6 -5 3 -10 -6 -10 12 -14 50 -11 11 1
39 1 62 1 41 0 168 25 188 38 5 4 15 7 20 7 6 0 27 8 49 18 21 9 42 17 47 17
5 0 9 5 9 10 0 6 7 10 15 10 8 0 15 5 15 11 0 5 4 8 9 5 8 -5 58 28 72 47 3 5
10 9 15 9 5 -1 23 12 41 28 17 16 34 26 37 23 3 -4 6 -1 6 5 0 7 -34 10 -103
9 -101 -2 -103 -2 -189 41 -48 23 -90 47 -93 52 -4 6 -10 8 -15 5 -4 -3 -11 2
-14 11 -3 8 -10 12 -16 9 -5 -3 -10 -1 -10 4 0 6 -4 11 -10 11 -5 0 -18 8 -28
17 -11 10 -33 29 -50 43 -17 14 -31 31 -32 38 0 6 -7 12 -15 12 -8 0 -14 4
-13 9 2 6 -12 29 -30 53 -61 79 -204 283 -229 326 -14 23 -29 42 -34 42 -5 0
-8 3 -7 8 3 11 -64 112 -73 112 -5 0 -8 3 -7 8 2 7 -24 51 -83 140 -16 24 -29
45 -29 48 0 3 -8 18 -19 32 -16 24 -62 107 -125 227 -12 22 -23 42 -26 45 -3
3 -18 31 -35 63 -16 31 -33 57 -37 57 -4 0 -7 4 -5 8 1 5 -22 48 -50 96 -29
48 -53 92 -53 97 0 5 -3 9 -7 9 -5 0 -13 10 -19 23 -28 59 -68 123 -83 135 -9
7 -15 15 -13 18 3 5 -28 66 -37 74 -3 3 -15 22 -26 43 -11 20 -24 37 -29 37
-5 0 -7 3 -3 6 3 3 -9 27 -26 53 -18 25 -41 63 -51 84 -11 20 -23 37 -28 37
-4 0 -8 5 -8 12 0 12 -56 104 -76 125 -7 7 -18 26 -26 43 -7 16 -17 30 -21 30
-5 0 -6 4 -2 9 3 6 1 28 -4 50 -5 23 -5 41 -1 41 4 0 11 17 14 38 12 73 14 83
26 98 8 9 11 33 8 64 -6 64 -36 94 -82 84 -48 -11 -131 -5 -170 11 -43 18 -41
18 -60 -1z"/>
<path d="M2200 3002 l-22 -18 23 -49 c59 -129 117 -203 254 -320 32 -27 65
-58 74 -68 27 -31 99 -69 124 -65 13 1 30 -2 38 -8 22 -18 59 -27 59 -15 0 6
-20 21 -45 33 -30 15 -41 25 -32 30 26 17 53 6 78 -30 15 -23 35 -38 48 -39
19 -2 20 1 10 13 -6 8 -9 17 -5 21 3 4 13 -2 20 -13 8 -10 17 -16 20 -13 3 3
-3 15 -14 27 -28 29 -25 32 16 20 56 -15 49 -4 -20 30 -62 31 -96 39 -109 26
-8 -8 -109 -15 -130 -8 -10 3 -16 8 -13 11 2 3 -21 39 -52 81 -62 84 -71 95
-153 189 -31 36 -69 88 -85 116 -38 72 -48 78 -84 49z"/>
</g>
</svg>
